<svg xmlns="http://www.w3.org/2000/svg" viewBox="0 0 1200 720" width="1200" height="720">
  <defs>
    <pattern id="grid" width="40" height="40" patternUnits="userSpaceOnUse">
      <path d="M 40 0 L 0 0 0 40" fill="none" stroke="#1e293b" stroke-width="0.5"/>
    </pattern>
    <marker id="arrow" markerWidth="10" markerHeight="10" refX="8" refY="3" orient="auto" markerUnits="strokeWidth">
      <path d="M0,0 L8,3 L0,6 Z" fill="#64748b"/>
    </marker>
    <style>
      text { font-family: 'JetBrains Mono','Consolas',monospace; }
      .nm{font-size:13px;font-weight:700} .sub{font-size:9.5px} .tiny{font-size:8px}
      .ttl{font-size:20px;font-weight:700} .stl{font-size:11px} .mono{font-size:9px}
    </style>
  </defs>
  <rect width="1200" height="720" fill="#020617"/>
  <rect width="1200" height="720" fill="url(#grid)"/>
  <circle cx="34" cy="34" r="6" fill="#fbbf24"/>
  <text x="50" y="40" class="ttl" fill="#f1f5f9">AWS Infrastructure — ap-southeast-1</text>
  <text x="50" y="62" class="stl" fill="#94a3b8">Account 709609992277 · all config from Secrets Manager · Terraform-managed</text>
  <rect x="40" y="85" width="1120" height="560" rx="12" fill="none" stroke="#fbbf24" stroke-width="1.5" stroke-dasharray="8,4"/>
  <text x="58" y="108" class="stl" fill="#fbbf24">VPC · region ap-southeast-1</text>
  <rect x="70" y="140" width="300" height="90" rx="8" fill="#0f172a"/>
  <rect x="70" y="140" width="300" height="90" rx="8" fill="rgba(6,78,59,0.4)" stroke="#34d399" stroke-width="1.5"/>
  <text x="220.0" y="176.0" text-anchor="middle" class="nm" fill="#f1f5f9">EC2 orchestrator</text>
  <text x="220.0" y="191.0" text-anchor="middle" class="sub" fill="#34d399">i-0f9cd20350cfdc1a6</text>
  <text x="220.0" y="204.0" text-anchor="middle" class="tiny" fill="#94a3b8">Node.js · systemd · port 3000</text>

  <rect x="420" y="140" width="330" height="90" rx="8" fill="#0f172a"/>
  <rect x="420" y="140" width="330" height="90" rx="8" fill="rgba(8,51,68,0.4)" stroke="#22d3ee" stroke-width="1.5"/>
  <text x="585.0" y="176.0" text-anchor="middle" class="nm" fill="#f1f5f9">ECS Fargate sub-agent</text>
  <text x="585.0" y="191.0" text-anchor="middle" class="sub" fill="#22d3ee">cluster nanoclaw-cluster</text>
  <text x="585.0" y="204.0" text-anchor="middle" class="tiny" fill="#94a3b8">service nanoclaw-sub-agent · 2 tasks</text>

  <rect x="800" y="140" width="310" height="90" rx="8" fill="#0f172a"/>
  <rect x="800" y="140" width="310" height="90" rx="8" fill="rgba(8,51,68,0.4)" stroke="#22d3ee" stroke-width="1.5"/>
  <text x="955.0" y="176.0" text-anchor="middle" class="nm" fill="#f1f5f9">ECS indexer</text>
  <text x="955.0" y="191.0" text-anchor="middle" class="sub" fill="#22d3ee">nanoclaw-indexer</text>
  <text x="955.0" y="204.0" text-anchor="middle" class="tiny" fill="#94a3b8">shares nanoclaw/agent image</text>

  <rect x="420" y="270" width="330" height="64" rx="8" fill="#0f172a"/>
  <rect x="420" y="270" width="330" height="64" rx="8" fill="rgba(251,146,60,0.3)" stroke="#fb923c" stroke-width="1.5"/>
  <text x="585.0" y="298.0" text-anchor="middle" class="nm" fill="#f1f5f9">ElastiCache Redis 7.1</text>
  <text x="585.0" y="314.0" text-anchor="middle" class="sub" fill="#fb923c">nanoclaw-redis · queues, cache, reminders</text>

  <rect x="70" y="380" width="250" height="86" rx="8" fill="#0f172a"/>
  <rect x="70" y="380" width="250" height="86" rx="8" fill="rgba(76,29,149,0.4)" stroke="#a78bfa" stroke-width="1.5"/>
  <text x="195.0" y="414.0" text-anchor="middle" class="nm" fill="#f1f5f9">DynamoDB</text>
  <text x="195.0" y="429.0" text-anchor="middle" class="sub" fill="#a78bfa">4 tables</text>
  <text x="195.0" y="442.0" text-anchor="middle" class="tiny" fill="#94a3b8">chat · prefs · errors · tokens</text>

  <rect x="345" y="380" width="250" height="86" rx="8" fill="#0f172a"/>
  <rect x="345" y="380" width="250" height="86" rx="8" fill="rgba(76,29,149,0.4)" stroke="#a78bfa" stroke-width="1.5"/>
  <text x="470.0" y="414.0" text-anchor="middle" class="nm" fill="#f1f5f9">OpenSearch Serverless</text>
  <text x="470.0" y="429.0" text-anchor="middle" class="sub" fill="#a78bfa">nanoclaw-documents</text>
  <text x="470.0" y="442.0" text-anchor="middle" class="tiny" fill="#94a3b8">per-user vector + BM25</text>

  <rect x="620" y="380" width="250" height="86" rx="8" fill="#0f172a"/>
  <rect x="620" y="380" width="250" height="86" rx="8" fill="rgba(120,53,15,0.3)" stroke="#fbbf24" stroke-width="1.5"/>
  <text x="745.0" y="414.0" text-anchor="middle" class="nm" fill="#f1f5f9">S3</text>
  <text x="745.0" y="429.0" text-anchor="middle" class="sub" fill="#fbbf24">nanoclaw-data-…</text>
  <text x="745.0" y="442.0" text-anchor="middle" class="tiny" fill="#94a3b8">docs + media/generated/</text>

  <rect x="895" y="380" width="215" height="86" rx="8" fill="#0f172a"/>
  <rect x="895" y="380" width="215" height="86" rx="8" fill="rgba(120,53,15,0.3)" stroke="#fbbf24" stroke-width="1.5"/>
  <text x="1002.5" y="414.0" text-anchor="middle" class="nm" fill="#f1f5f9">Bedrock</text>
  <text x="1002.5" y="429.0" text-anchor="middle" class="sub" fill="#fbbf24">Claude Sonnet 4.5</text>
  <text x="1002.5" y="442.0" text-anchor="middle" class="tiny" fill="#94a3b8">+ Titan Embed v2</text>

  <rect x="70" y="510" width="300" height="80" rx="8" fill="#0f172a"/>
  <rect x="70" y="510" width="300" height="80" rx="8" fill="rgba(136,19,55,0.4)" stroke="#fb7185" stroke-width="1.5"/>
  <text x="220.0" y="541.0" text-anchor="middle" class="nm" fill="#f1f5f9">Secrets Manager</text>
  <text x="220.0" y="556.0" text-anchor="middle" class="sub" fill="#fb7185">nanoclaw/app-config</text>
  <text x="220.0" y="569.0" text-anchor="middle" class="tiny" fill="#94a3b8">model id, endpoints, tokens</text>

  <rect x="420" y="510" width="330" height="80" rx="8" fill="#0f172a"/>
  <rect x="420" y="510" width="330" height="80" rx="8" fill="rgba(120,53,15,0.3)" stroke="#fbbf24" stroke-width="1.5"/>
  <text x="585.0" y="541.0" text-anchor="middle" class="nm" fill="#f1f5f9">ECR</text>
  <text x="585.0" y="556.0" text-anchor="middle" class="sub" fill="#fbbf24">nanoclaw/orchestrator</text>
  <text x="585.0" y="569.0" text-anchor="middle" class="tiny" fill="#94a3b8">nanoclaw/agent · latest+SHA</text>

  <rect x="800" y="510" width="310" height="80" rx="8" fill="#0f172a"/>
  <rect x="800" y="510" width="310" height="80" rx="8" fill="rgba(136,19,55,0.4)" stroke="#fb7185" stroke-width="1.5"/>
  <text x="955.0" y="541.0" text-anchor="middle" class="nm" fill="#f1f5f9">IAM</text>
  <text x="955.0" y="556.0" text-anchor="middle" class="sub" fill="#fb7185">ECS task role · EC2 role</text>
  <text x="955.0" y="569.0" text-anchor="middle" class="tiny" fill="#94a3b8">Bedrock·Dynamo·S3·AOSS·SM</text>

  <line x1="370" y1="185" x2="418" y2="185" stroke="#64748b" stroke-width="1.5" marker-end="url(#arrow)"/>

  <line x1="585" y1="230" x2="585" y2="268" stroke="#64748b" stroke-width="1.5" marker-end="url(#arrow)"/>

  <line x1="235" y1="230" x2="235" y2="378" stroke="#64748b" stroke-width="1.5" marker-end="url(#arrow)"/>

  <line x1="560" y1="334" x2="470" y2="378" stroke="#a78bfa" stroke-width="1.5" marker-end="url(#arrow)"/>

  <line x1="745" y1="378" x2="745" y2="334" stroke="#fbbf24" stroke-width="1.5" marker-end="url(#arrow)" stroke-dasharray="4,4"/>

  <line x1="1000" y1="378" x2="965" y2="230" stroke="#fbbf24" stroke-width="1.5" marker-end="url(#arrow)" stroke-dasharray="4,4"/>

  <text x="1180" y="706" text-anchor="end" class="tiny" fill="#475569">tf state: s3://nanoclaw-tfstate-709609992277 (use_lockfile=true)</text>
</svg>