<svg xmlns="http://www.w3.org/2000/svg" viewBox="0 0 1200 560" width="1200" height="560">
  <defs>
    <pattern id="grid" width="40" height="40" patternUnits="userSpaceOnUse">
      <path d="M 40 0 L 0 0 0 40" fill="none" stroke="#1e293b" stroke-width="0.5"/></pattern>
    <marker id="arrow" markerWidth="10" markerHeight="10" refX="8" refY="3" orient="auto" markerUnits="strokeWidth">
      <path d="M0,0 L8,3 L0,6 Z" fill="#64748b"/></marker>
    <style>text{font-family:'JetBrains Mono','Consolas',monospace}
      .nm{font-size:13px;font-weight:700} .sub{font-size:9.5px} .tiny{font-size:8px}
      .ttl{font-size:20px;font-weight:700} .stl{font-size:11px}</style></defs>
  <rect width="1200" height="560" fill="#020617"/>
  <rect width="1200" height="560" fill="url(#grid)"/>
  <circle cx="34" cy="34" r="6" fill="#34d399"/>
  <text x="50" y="40" class="ttl" fill="#f1f5f9">Deployment — code to production</text>
  <text x="50" y="62" class="stl" fill="#94a3b8">Sub-agent ships via container image; orchestrator ships via git pull on EC2.</text>
  <rect x="60" y="120" width="180" height="80" rx="8" fill="#0f172a"/>
  <rect x="60" y="120" width="180" height="80" rx="8" fill="rgba(30,41,59,0.5)" stroke="#94a3b8" stroke-width="1.5"/>
  <text x="150.0" y="151.0" text-anchor="middle" class="nm" fill="#f1f5f9">git push</text>
  <text x="150.0" y="166.0" text-anchor="middle" class="sub" fill="#94a3b8">feature/nanoclaw-</text>
  <text x="150.0" y="179.0" text-anchor="middle" class="tiny" fill="#94a3b8">aws-deployment</text>

  <text x="300" y="112" class="stl" fill="#22d3ee">Sub-agent lane (container)</text>
  <rect x="300" y="120" width="180" height="80" rx="8" fill="#0f172a"/>
  <rect x="300" y="120" width="180" height="80" rx="8" fill="rgba(6,78,59,0.4)" stroke="#34d399" stroke-width="1.5"/>
  <text x="390.0" y="151.0" text-anchor="middle" class="nm" fill="#f1f5f9">CI</text>
  <text x="390.0" y="166.0" text-anchor="middle" class="sub" fill="#34d399">lint · vitest</text>
  <text x="390.0" y="179.0" text-anchor="middle" class="tiny" fill="#94a3b8">pytest · k6</text>

  <rect x="520" y="120" width="180" height="80" rx="8" fill="#0f172a"/>
  <rect x="520" y="120" width="180" height="80" rx="8" fill="rgba(120,53,15,0.3)" stroke="#fbbf24" stroke-width="1.5"/>
  <text x="610.0" y="151.0" text-anchor="middle" class="nm" fill="#f1f5f9">Build + push</text>
  <text x="610.0" y="166.0" text-anchor="middle" class="sub" fill="#fbbf24">docker → ECR</text>
  <text x="610.0" y="179.0" text-anchor="middle" class="tiny" fill="#94a3b8">latest + SHA tags</text>

  <rect x="740" y="120" width="200" height="80" rx="8" fill="#0f172a"/>
  <rect x="740" y="120" width="200" height="80" rx="8" fill="rgba(8,51,68,0.4)" stroke="#22d3ee" stroke-width="1.5"/>
  <text x="840.0" y="151.0" text-anchor="middle" class="nm" fill="#f1f5f9">ECS redeploy</text>
  <text x="840.0" y="166.0" text-anchor="middle" class="sub" fill="#22d3ee">nanoclaw-sub-agent</text>
  <text x="840.0" y="179.0" text-anchor="middle" class="tiny" fill="#94a3b8">rolling 2 tasks</text>

  <rect x="980" y="120" width="160" height="80" rx="8" fill="#0f172a"/>
  <rect x="980" y="120" width="160" height="80" rx="8" fill="rgba(8,51,68,0.4)" stroke="#22d3ee" stroke-width="1.5"/>
  <text x="1060.0" y="156.0" text-anchor="middle" class="nm" fill="#f1f5f9">Live</text>
  <text x="1060.0" y="172.0" text-anchor="middle" class="sub" fill="#22d3ee">prod traffic</text>

  <line x1="240" y1="160" x2="298" y2="160" stroke="#64748b" stroke-width="1.5" marker-end="url(#arrow)"/>

  <line x1="480" y1="160" x2="518" y2="160" stroke="#64748b" stroke-width="1.5" marker-end="url(#arrow)"/>

  <line x1="700" y1="160" x2="738" y2="160" stroke="#64748b" stroke-width="1.5" marker-end="url(#arrow)"/>

  <line x1="940" y1="160" x2="978" y2="160" stroke="#64748b" stroke-width="1.5" marker-end="url(#arrow)"/>

  <text x="300" y="300" class="stl" fill="#34d399">Orchestrator lane (EC2, manual)</text>
  <rect x="300" y="310" width="180" height="80" rx="8" fill="#0f172a"/>
  <rect x="300" y="310" width="180" height="80" rx="8" fill="rgba(6,78,59,0.4)" stroke="#34d399" stroke-width="1.5"/>
  <text x="390.0" y="341.0" text-anchor="middle" class="nm" fill="#f1f5f9">SSM session</text>
  <text x="390.0" y="356.0" text-anchor="middle" class="sub" fill="#34d399">aws ssm</text>
  <text x="390.0" y="369.0" text-anchor="middle" class="tiny" fill="#94a3b8">start-session</text>

  <rect x="520" y="310" width="180" height="80" rx="8" fill="#0f172a"/>
  <rect x="520" y="310" width="180" height="80" rx="8" fill="rgba(6,78,59,0.4)" stroke="#34d399" stroke-width="1.5"/>
  <text x="610.0" y="341.0" text-anchor="middle" class="nm" fill="#f1f5f9">On EC2</text>
  <text x="610.0" y="356.0" text-anchor="middle" class="sub" fill="#34d399">git pull · pnpm</text>
  <text x="610.0" y="369.0" text-anchor="middle" class="tiny" fill="#94a3b8">build</text>

  <rect x="740" y="310" width="200" height="80" rx="8" fill="#0f172a"/>
  <rect x="740" y="310" width="200" height="80" rx="8" fill="rgba(6,78,59,0.4)" stroke="#34d399" stroke-width="1.5"/>
  <text x="840.0" y="346.0" text-anchor="middle" class="nm" fill="#f1f5f9">systemctl</text>
  <text x="840.0" y="362.0" text-anchor="middle" class="sub" fill="#34d399">restart nanoclaw</text>

  <rect x="980" y="310" width="160" height="80" rx="8" fill="#0f172a"/>
  <rect x="980" y="310" width="160" height="80" rx="8" fill="rgba(6,78,59,0.4)" stroke="#34d399" stroke-width="1.5"/>
  <text x="1060.0" y="346.0" text-anchor="middle" class="nm" fill="#f1f5f9">Live</text>
  <text x="1060.0" y="362.0" text-anchor="middle" class="sub" fill="#34d399">prod traffic</text>

  <line x1="150" y1="200" x2="150" y2="350" stroke="#34d399" stroke-width="1.5" marker-end="url(#arrow)"/>
  <text x="150.0" y="279.0" text-anchor="middle" class="tiny" fill="#cbd5e1">src/** change</text>

  <line x1="240" y1="350" x2="298" y2="350" stroke="#64748b" stroke-width="1.5" marker-end="url(#arrow)"/>

  <line x1="480" y1="350" x2="518" y2="350" stroke="#64748b" stroke-width="1.5" marker-end="url(#arrow)"/>

  <line x1="700" y1="350" x2="738" y2="350" stroke="#64748b" stroke-width="1.5" marker-end="url(#arrow)"/>

  <line x1="940" y1="350" x2="978" y2="350" stroke="#64748b" stroke-width="1.5" marker-end="url(#arrow)"/>

  <line x1="150" y1="200" x2="300" y2="160" stroke="#22d3ee" stroke-width="1.5" marker-end="url(#arrow)"/>
  <text x="265.0" y="176.0" text-anchor="middle" class="tiny" fill="#cbd5e1">container/sub-agent/** change</text>

  <rect x="300" y="440" width="840" height="70" rx="8" fill="#0f172a"/>
  <rect x="300" y="440" width="840" height="70" rx="8" fill="rgba(136,19,55,0.4)" stroke="#fb7185" stroke-width="1.5"/>
  <text x="720.0" y="466.0" text-anchor="middle" class="nm" fill="#f1f5f9">Manual fallback (CI billing-blocked)</text>
  <text x="720.0" y="481.0" text-anchor="middle" class="sub" fill="#fb7185">docker build → tag (plain concat, never -f) → ECR push → force-redeploy nanoclaw-sub-agent + nanoclaw-indexer → verify digest</text>
  <text x="720.0" y="494.0" text-anchor="middle" class="tiny" fill="#94a3b8">see docs/deployment.md</text>

</svg>